<svg width="80" height="105" viewBox="0 0 80 105" fill="none" xmlns="http://www.w3.org/2000/svg">
<path d="M79.193 0C75.1863 14.9996 67.9776 40.0845 62.5325 53.8512C57.1902 67.618 52.002 79.9464 46.9679 90.8365L40.6667 104.877L34.023 90.8365C28.9889 79.9464 23.7493 67.618 18.3043 53.8512C12.962 40.0845 4.00674 14.9996 0 0L19.6913 10.7018C20.9241 15.7359 22.3624 21.1295 24.0062 26.8828C25.7527 32.5333 27.5506 38.1839 29.3999 43.8344C31.3519 49.3822 33.3039 54.7759 35.2559 60.0154C37.2079 65.255 39.0571 69.9295 40.8037 74.039C42.5502 69.9295 44.3995 65.255 46.3515 60.0154C48.3035 54.7759 50.2041 49.3822 52.0534 43.8344C54.0054 38.1839 55.8033 32.5333 57.447 26.8828C59.1936 21.1295 60.6832 15.7359 61.9161 10.7018L79.193 0Z" fill="black"/>
<path d="M77.0526 6.42105C74.6846 15.2349 71.8915 23.6866 68.6734 31.776C65.516 39.8654 62.4497 47.1097 59.4744 53.5088L55.8313 59.9298L51.8238 53.5088C48.8486 47.1097 45.7519 39.8654 42.5338 31.776C39.3764 23.6866 36.6137 15.2349 34.2456 6.42105H43.3535C44.0821 9.37913 44.9322 12.5485 45.9037 15.9291C46.9359 19.2494 47.9985 22.5697 49.0914 25.89C50.2451 29.1499 51.3988 32.3193 52.5524 35.3981C53.7061 38.4769 54.7991 41.2237 55.8313 43.6385C56.8635 41.2237 57.9565 38.4769 59.1101 35.3981C60.2638 32.3193 61.3871 29.1499 62.48 25.89C63.6337 22.5697 64.6963 19.2494 65.6678 15.9291C66.7 12.5485 67.5804 9.37913 68.309 6.42105H77.0526Z" fill="black"/>
</svg>
