<svg width="553" height="122" viewBox="0 0 553 122" fill="none" xmlns="http://www.w3.org/2000/svg">
<path d="M62.4086 104.877H52.456V53.4622H62.4086V104.877ZM57.3788 44.168C55.5952 44.168 54.0613 43.6407 52.7771 42.586C51.5642 41.4654 50.9578 39.9823 50.9578 38.1366C50.9578 36.291 51.5642 34.8408 52.7771 33.7861C54.0613 32.6655 55.5952 32.1053 57.3788 32.1053C59.1624 32.1053 60.6607 32.6655 61.8736 33.7861C63.1578 34.8408 63.7999 36.291 63.7999 38.1366C63.7999 39.9823 63.1578 41.4654 61.8736 42.586C60.6607 43.6407 59.1624 44.168 57.3788 44.168Z" fill="white"/>
<path d="M110.887 76.4705C110.887 69.3816 111.915 63.2174 113.97 57.9778C116.024 52.6355 118.747 48.2178 122.137 44.7248C125.527 41.2317 129.431 38.6119 133.849 36.8654C138.267 35.1189 142.787 34.2456 147.41 34.2456C158.198 34.2456 166.468 37.6359 172.221 44.4166C177.975 51.0945 180.851 61.3168 180.851 75.0835C180.851 75.6999 180.851 76.5218 180.851 77.5492C180.851 78.4738 180.8 79.3471 180.697 80.169H125.836C126.452 88.4907 128.866 94.809 133.079 99.1239C137.291 103.439 143.866 105.596 152.804 105.596C157.838 105.596 162.05 105.185 165.441 104.364C168.934 103.439 171.554 102.566 173.3 101.744L175.303 113.764C173.557 114.689 170.475 115.665 166.057 116.692C161.742 117.719 156.811 118.233 151.263 118.233C144.277 118.233 138.215 117.206 133.079 115.151C128.045 112.993 123.884 110.065 120.596 106.367C117.309 102.668 114.843 98.302 113.199 93.2679C111.658 88.1311 110.887 82.5319 110.887 76.4705ZM165.903 68.6111C166.006 62.1387 164.362 56.8477 160.972 52.7382C157.684 48.526 153.112 46.4199 147.256 46.4199C143.969 46.4199 141.041 47.0877 138.472 48.4233C136.007 49.6561 133.901 51.2999 132.154 53.3547C130.407 55.4094 129.021 57.7723 127.993 60.4435C127.069 63.1147 126.452 65.8372 126.144 68.6111H165.903Z" fill="white"/>
<path d="M99.3639 0C103.576 0 107.172 0.308211 110.151 0.92463C113.233 1.54105 115.391 2.1061 116.624 2.61978L114.004 14.9482C112.771 14.3318 111.025 13.7667 108.764 13.253C106.504 12.6366 103.73 12.3284 100.443 12.3284C93.7648 12.3284 89.0903 14.1777 86.4191 17.8762C83.7479 21.472 82.4124 26.352 82.4124 32.5162V39.4509H113.233V51.4712H82.4124V119.586H68.0806V32.208C68.0806 21.9343 70.5976 14.0236 75.6317 8.47579C80.6658 2.82526 88.5766 0 99.3639 0Z" fill="white"/>
<path d="M125.87 68.4913V78.4439H74.4551V68.4913H125.87Z" fill="white"/>
<path d="M64.2619 106.692V119.637H0V12.8421H14.9482V106.692H64.2619Z" fill="white"/>
<path d="M550.813 121.127C541.978 120.921 535.711 119.021 532.012 115.425C528.314 111.829 526.464 106.23 526.464 98.6274V2.46568L540.796 0V96.3158C540.796 98.6787 541.002 100.631 541.413 102.172C541.824 103.713 542.491 104.946 543.416 105.87C544.341 106.795 545.573 107.514 547.114 108.028C548.656 108.439 550.556 108.798 552.816 109.107L550.813 121.127Z" fill="white"/>
<path d="M436.221 76.4705C436.221 69.3816 437.248 63.2174 439.303 57.9778C441.358 52.6355 444.08 48.2178 447.471 44.7248C450.861 41.2317 454.765 38.6119 459.183 36.8654C463.6 35.1189 468.121 34.2456 472.744 34.2456C483.531 34.2456 491.802 37.6359 497.555 44.4166C503.308 51.0945 506.185 61.3168 506.185 75.0835C506.185 75.6999 506.185 76.5218 506.185 77.5492C506.185 78.4738 506.133 79.3471 506.031 80.169H451.169C451.786 88.4907 454.2 94.809 458.412 99.1239C462.624 103.439 469.2 105.596 478.138 105.596C483.172 105.596 487.384 105.185 490.774 104.364C494.267 103.439 496.887 102.566 498.634 101.744L500.637 113.764C498.89 114.689 495.808 115.665 491.391 116.692C487.076 117.719 482.144 118.233 476.597 118.233C469.61 118.233 463.549 117.206 458.412 115.151C453.378 112.993 449.217 110.065 445.93 106.367C442.642 102.668 440.176 98.302 438.533 93.2679C436.992 88.1311 436.221 82.5319 436.221 76.4705ZM491.237 68.6111C491.339 62.1387 489.695 56.8477 486.305 52.7382C483.018 48.526 478.446 46.4199 472.59 46.4199C469.302 46.4199 466.374 47.0877 463.806 48.4233C461.34 49.6561 459.234 51.2999 457.487 53.3547C455.741 55.4094 454.354 57.7723 453.327 60.4435C452.402 63.1147 451.786 65.8372 451.477 68.6111H491.237Z" fill="white"/>
<path d="M434.081 17.1228C430.074 32.1224 422.865 57.2073 417.42 70.974C412.078 84.7408 406.89 97.0692 401.856 107.959L395.554 122L388.911 107.959C383.877 97.0692 378.637 84.7408 373.192 70.974C367.85 57.2073 358.894 32.1224 354.888 17.1228L374.579 27.8246C375.812 32.8587 377.25 38.2523 378.894 44.0056C380.64 49.6561 382.438 55.3067 384.288 60.9572C386.24 66.505 388.192 71.8987 390.144 77.1382C392.096 82.3778 393.945 87.0524 395.691 91.1618C397.438 87.0524 399.287 82.3778 401.239 77.1382C403.191 71.8987 405.092 66.505 406.941 60.9572C408.893 55.3067 410.691 49.6561 412.335 44.0056C414.081 38.2523 415.571 32.8587 416.804 27.8246L434.081 17.1228Z" fill="white"/>
<path d="M431.94 23.5439C429.572 32.3577 426.779 40.8094 423.561 48.8988C420.404 56.9882 417.337 64.2325 414.362 70.6316L410.719 77.0526L406.712 70.6316C403.736 64.2325 400.64 56.9882 397.421 48.8988C394.264 40.8094 391.501 32.3577 389.133 23.5439H398.241C398.97 26.5019 399.82 29.6713 400.791 33.052C401.824 36.3722 402.886 39.6925 403.979 43.0128C405.133 46.2727 406.286 49.4421 407.44 52.5209C408.594 55.5997 409.687 58.3465 410.719 60.7613C411.751 58.3465 412.844 55.5997 413.998 52.5209C415.151 49.4421 416.275 46.2727 417.368 43.0128C418.521 39.6925 419.584 36.3722 420.555 33.052C421.588 29.6713 422.468 26.5019 423.197 23.5439H431.94Z" fill="white"/>
<path d="M277.458 38.5263C278.691 38.5263 280.078 38.6291 281.619 38.8345C283.263 38.9373 284.855 39.1427 286.396 39.451C287.937 39.6564 289.324 39.9133 290.557 40.2215C291.893 40.427 292.869 40.6324 293.485 40.8379L292.817 53.5088C292.817 53.5088 286.927 51.8821 284.256 51.3684C281.688 50.752 279.41 51.0089 275.301 51.0089C272.63 51.0089 269.959 51.3171 267.287 51.9335C264.719 52.4472 263.024 52.8067 262.202 53.0122V120.356H247.87V43.6118C251.26 42.3789 255.473 41.2488 260.507 40.2215C265.541 39.0914 271.191 38.5263 277.458 38.5263Z" fill="white"/>
<path d="M274.359 12.8421V25.7869H240.764V119.637H225.816V25.7869H192.221V12.8421H274.359Z" fill="white"/>
<path d="M327.782 106.059C331.172 106.059 334.152 106.007 336.72 105.905C339.391 105.699 341.6 105.391 343.347 104.98V81.0936C342.319 80.5799 340.624 80.169 338.261 79.8608C336.001 79.4498 333.227 79.2443 329.94 79.2443C327.782 79.2443 325.471 79.3984 323.005 79.7067C320.642 80.0149 318.433 80.6827 316.378 81.71C314.426 82.6347 312.783 83.9702 311.447 85.7168C310.111 87.3606 309.444 89.5694 309.444 92.3433C309.444 97.4801 311.087 101.076 314.375 103.131C317.663 105.083 322.132 106.059 327.782 106.059ZM326.549 34.2456C332.303 34.2456 337.131 35.0161 341.035 36.5572C345.042 37.9955 348.227 40.1016 350.59 42.8755C353.055 45.5467 354.802 48.7829 355.829 52.5841C356.857 56.2827 357.37 60.3921 357.37 64.9126V114.997C356.138 115.202 354.391 115.51 352.131 115.921C349.973 116.23 347.508 116.538 344.734 116.846C341.96 117.154 338.929 117.411 335.642 117.617C332.457 117.925 329.272 118.079 326.087 118.079C321.567 118.079 317.406 117.617 313.604 116.692C309.803 115.767 306.516 114.329 303.742 112.377C300.968 110.322 298.81 107.651 297.269 104.364C295.728 101.076 294.958 97.1206 294.958 92.4974C294.958 88.0797 295.831 84.2784 297.578 81.0936C299.427 77.9088 301.892 75.3403 304.975 73.3883C308.057 71.4363 311.652 69.998 315.762 69.0734C319.871 68.1488 324.186 67.6864 328.707 67.6864C330.145 67.6864 331.635 67.7892 333.176 67.9947C334.717 68.0974 336.155 68.3029 337.491 68.6111C338.929 68.8166 340.162 69.022 341.189 69.2275C342.217 69.433 342.936 69.5871 343.347 69.6898V65.6831C343.347 63.3201 343.09 61.0086 342.576 58.7483C342.063 56.3854 341.138 54.3307 339.802 52.5841C338.467 50.7349 336.618 49.2966 334.255 48.2692C331.994 47.1391 329.015 46.574 325.316 46.574C320.591 46.574 316.43 46.9336 312.834 47.6528C309.341 48.2692 306.721 48.937 304.975 49.6561L303.279 37.79C305.129 36.9681 308.211 36.1976 312.526 35.4784C316.841 34.6566 321.515 34.2456 326.549 34.2456Z" fill="white"/>
</svg>
